<mxfile host="app.diagrams.net" agent="Mozilla/5.0 (Windows NT 10.0; Win64; x64) AppleWebKit/537.36 (KHTML, like Gecko) Chrome/128.0.0.0 Safari/537.36 Edg/128.0.0.0" version="24.7.14">
  <diagram name="第 1 页" id="YbbkgijUPWNXErHSWZw6">
    <mxGraphModel dx="1303" dy="1885" grid="1" gridSize="10" guides="1" tooltips="1" connect="1" arrows="1" fold="1" page="1" pageScale="1" pageWidth="827" pageHeight="1169" math="0" shadow="0">
      <root>
        <mxCell id="0" />
        <mxCell id="1" parent="0" />
        <mxCell id="ekWpFqZSS68SOW6E4ddi-7" style="edgeStyle=orthogonalEdgeStyle;rounded=0;orthogonalLoop=1;jettySize=auto;html=1;exitX=1;exitY=0.5;exitDx=0;exitDy=0;entryX=0;entryY=0.5;entryDx=0;entryDy=0;" edge="1" parent="1" source="ekWpFqZSS68SOW6E4ddi-1" target="ekWpFqZSS68SOW6E4ddi-6">
          <mxGeometry relative="1" as="geometry" />
        </mxCell>
        <mxCell id="ekWpFqZSS68SOW6E4ddi-1" value="&lt;font style=&quot;font-size: 17px;&quot;&gt;图卷积层1&lt;/font&gt;" style="rounded=0;whiteSpace=wrap;html=1;" vertex="1" parent="1">
          <mxGeometry x="220" y="-90" width="200" height="120" as="geometry" />
        </mxCell>
        <mxCell id="ekWpFqZSS68SOW6E4ddi-11" style="edgeStyle=orthogonalEdgeStyle;rounded=0;orthogonalLoop=1;jettySize=auto;html=1;exitX=1;exitY=0.5;exitDx=0;exitDy=0;entryX=0;entryY=0.5;entryDx=0;entryDy=0;" edge="1" parent="1" source="ekWpFqZSS68SOW6E4ddi-2" target="ekWpFqZSS68SOW6E4ddi-12">
          <mxGeometry relative="1" as="geometry">
            <mxPoint x="480" y="230" as="targetPoint" />
          </mxGeometry>
        </mxCell>
        <mxCell id="ekWpFqZSS68SOW6E4ddi-2" value="&lt;font style=&quot;font-size: 17px;&quot;&gt;图卷积层2&lt;/font&gt;" style="rounded=0;whiteSpace=wrap;html=1;" vertex="1" parent="1">
          <mxGeometry x="220" y="170" width="200" height="120" as="geometry" />
        </mxCell>
        <mxCell id="ekWpFqZSS68SOW6E4ddi-15" style="edgeStyle=orthogonalEdgeStyle;rounded=0;orthogonalLoop=1;jettySize=auto;html=1;exitX=1;exitY=0.5;exitDx=0;exitDy=0;entryX=0;entryY=0.5;entryDx=0;entryDy=0;" edge="1" parent="1" source="ekWpFqZSS68SOW6E4ddi-3" target="ekWpFqZSS68SOW6E4ddi-16">
          <mxGeometry relative="1" as="geometry">
            <mxPoint x="480" y="510" as="targetPoint" />
          </mxGeometry>
        </mxCell>
        <mxCell id="ekWpFqZSS68SOW6E4ddi-3" value="&lt;font style=&quot;font-size: 17px;&quot;&gt;图卷积层3&lt;/font&gt;" style="rounded=0;whiteSpace=wrap;html=1;" vertex="1" parent="1">
          <mxGeometry x="220" y="450" width="200" height="120" as="geometry" />
        </mxCell>
        <mxCell id="ekWpFqZSS68SOW6E4ddi-5" style="edgeStyle=orthogonalEdgeStyle;rounded=0;orthogonalLoop=1;jettySize=auto;html=1;exitX=1;exitY=0.5;exitDx=0;exitDy=0;entryX=0;entryY=0.5;entryDx=0;entryDy=0;" edge="1" parent="1" source="ekWpFqZSS68SOW6E4ddi-4" target="ekWpFqZSS68SOW6E4ddi-1">
          <mxGeometry relative="1" as="geometry" />
        </mxCell>
        <mxCell id="ekWpFqZSS68SOW6E4ddi-4" value="K近邻图" style="rounded=0;whiteSpace=wrap;html=1;" vertex="1" parent="1">
          <mxGeometry x="50" y="-85" width="50" height="110" as="geometry" />
        </mxCell>
        <mxCell id="ekWpFqZSS68SOW6E4ddi-20" style="rounded=0;orthogonalLoop=1;jettySize=auto;html=1;exitX=1;exitY=0.5;exitDx=0;exitDy=0;entryX=0;entryY=0.5;entryDx=0;entryDy=0;" edge="1" parent="1" source="ekWpFqZSS68SOW6E4ddi-6" target="ekWpFqZSS68SOW6E4ddi-19">
          <mxGeometry relative="1" as="geometry" />
        </mxCell>
        <mxCell id="ekWpFqZSS68SOW6E4ddi-6" value="节点嵌入1" style="rounded=0;whiteSpace=wrap;html=1;" vertex="1" parent="1">
          <mxGeometry x="510" y="-85" width="60" height="110" as="geometry" />
        </mxCell>
        <mxCell id="ekWpFqZSS68SOW6E4ddi-10" style="rounded=0;orthogonalLoop=1;jettySize=auto;html=1;exitX=1;exitY=0.5;exitDx=0;exitDy=0;entryX=0;entryY=0.5;entryDx=0;entryDy=0;" edge="1" parent="1" source="ekWpFqZSS68SOW6E4ddi-9" target="ekWpFqZSS68SOW6E4ddi-2">
          <mxGeometry relative="1" as="geometry" />
        </mxCell>
        <mxCell id="ekWpFqZSS68SOW6E4ddi-9" value="个性化PageRank矩阵" style="rounded=0;whiteSpace=wrap;html=1;" vertex="1" parent="1">
          <mxGeometry x="50" y="290" width="50" height="110" as="geometry" />
        </mxCell>
        <mxCell id="ekWpFqZSS68SOW6E4ddi-21" style="edgeStyle=orthogonalEdgeStyle;rounded=0;orthogonalLoop=1;jettySize=auto;html=1;exitX=1;exitY=0.5;exitDx=0;exitDy=0;entryX=0;entryY=0.5;entryDx=0;entryDy=0;" edge="1" parent="1" source="ekWpFqZSS68SOW6E4ddi-12" target="ekWpFqZSS68SOW6E4ddi-19">
          <mxGeometry relative="1" as="geometry" />
        </mxCell>
        <mxCell id="ekWpFqZSS68SOW6E4ddi-12" value="节点嵌入2" style="rounded=0;whiteSpace=wrap;html=1;" vertex="1" parent="1">
          <mxGeometry x="510" y="175" width="60" height="110" as="geometry" />
        </mxCell>
        <mxCell id="ekWpFqZSS68SOW6E4ddi-14" style="edgeStyle=orthogonalEdgeStyle;rounded=0;orthogonalLoop=1;jettySize=auto;html=1;exitX=1;exitY=0.5;exitDx=0;exitDy=0;entryX=0;entryY=0.5;entryDx=0;entryDy=0;" edge="1" parent="1" source="ekWpFqZSS68SOW6E4ddi-13" target="ekWpFqZSS68SOW6E4ddi-3">
          <mxGeometry relative="1" as="geometry">
            <mxPoint x="210" y="505" as="targetPoint" />
          </mxGeometry>
        </mxCell>
        <mxCell id="ekWpFqZSS68SOW6E4ddi-13" value="个性化PageRank矩阵" style="rounded=0;whiteSpace=wrap;html=1;" vertex="1" parent="1">
          <mxGeometry x="50" y="455" width="50" height="110" as="geometry" />
        </mxCell>
        <mxCell id="ekWpFqZSS68SOW6E4ddi-22" style="rounded=0;orthogonalLoop=1;jettySize=auto;html=1;exitX=1;exitY=0.5;exitDx=0;exitDy=0;entryX=0;entryY=0.5;entryDx=0;entryDy=0;" edge="1" parent="1" source="ekWpFqZSS68SOW6E4ddi-16" target="ekWpFqZSS68SOW6E4ddi-19">
          <mxGeometry relative="1" as="geometry" />
        </mxCell>
        <mxCell id="ekWpFqZSS68SOW6E4ddi-16" value="节点嵌入2" style="rounded=0;whiteSpace=wrap;html=1;" vertex="1" parent="1">
          <mxGeometry x="510" y="455" width="60" height="110" as="geometry" />
        </mxCell>
        <mxCell id="ekWpFqZSS68SOW6E4ddi-18" style="rounded=0;orthogonalLoop=1;jettySize=auto;html=1;exitX=1;exitY=0.5;exitDx=0;exitDy=0;entryX=0;entryY=0.5;entryDx=0;entryDy=0;" edge="1" parent="1" source="ekWpFqZSS68SOW6E4ddi-17" target="ekWpFqZSS68SOW6E4ddi-2">
          <mxGeometry relative="1" as="geometry" />
        </mxCell>
        <mxCell id="ekWpFqZSS68SOW6E4ddi-17" value="K近邻图" style="rounded=0;whiteSpace=wrap;html=1;" vertex="1" parent="1">
          <mxGeometry x="50" y="100" width="50" height="110" as="geometry" />
        </mxCell>
        <mxCell id="ekWpFqZSS68SOW6E4ddi-19" value="&lt;font style=&quot;font-size: 20px;&quot;&gt;注意力机制&lt;/font&gt;" style="rounded=0;whiteSpace=wrap;html=1;" vertex="1" parent="1">
          <mxGeometry x="690" y="-95" width="210" height="650" as="geometry" />
        </mxCell>
      </root>
    </mxGraphModel>
  </diagram>
</mxfile>
